<svg width="531" height="531" viewBox="0 0 531 531" fill="none" xmlns="http://www.w3.org/2000/svg">
<circle cx="265.5" cy="265.5" r="259.512" fill="#F4A674" stroke="#A55728" stroke-width="10.0248"/>
<path fill-rule="evenodd" clip-rule="evenodd" d="M375.374 181.634C370.238 163.133 370.972 161.132 363.318 143.46C337.935 92.1214 168.31 109.311 150.998 160.559C141.607 188.361 143.813 227.516 141.368 251.623C140.62 264.405 139.885 277.188 139.124 289.969C138.861 294.383 138.595 298.797 138.324 303.21C137.797 311.801 137.284 320.393 136.805 328.987C133.616 355.463 146.921 358.156 169.743 357.372C175.777 371.929 185.549 384.081 197.62 393.968C194.707 401.893 205.272 405.996 210.971 409.165C241.98 426.479 280.069 437.04 314.416 427.304C324.508 424.444 366.184 414.536 378.999 383.866C385.291 368.805 398.084 290.81 381.214 220.649L375.374 181.634Z" fill="#AE5D29"/>
<path fill-rule="evenodd" clip-rule="evenodd" d="M266.952 60.9578C271.748 60.1095 277.111 60.436 279.86 65.1454C280.455 66.1606 280.833 67.1845 281.014 68.1931C294.119 65.247 307.725 64.9278 321.113 66.858C325.104 67.4305 326.505 72.7494 324.748 75.7906C324.567 76.1026 324.386 76.4066 324.19 76.7049C328.384 77.0452 332.571 77.7708 336.722 78.889C339.675 79.6873 342.432 83.5114 341.12 86.6461C341.003 86.9219 340.879 87.1976 340.757 87.4726C347.28 88.5691 353.513 91.1306 358.962 95.2667C359.615 95.7529 360.218 96.3842 360.718 97.1026C372.902 95.7304 385.448 98.2491 396.326 104.127C399.373 105.773 400.846 110.52 398.778 113.48C398.132 114.402 397.458 115.28 396.732 116.129C401.463 117.878 405.65 120.707 408.473 125.315C411.542 130.315 412.486 136.752 410.838 142.252C414.278 145.757 416.077 151.126 414.851 156.51C413.734 161.423 410.722 164.543 406.862 166.416C407.646 168.81 407.014 171.531 405.236 173.381C402.508 176.218 399.243 178.395 395.687 179.825C395.68 180.747 395.448 181.698 394.983 182.583C391.776 188.736 384.86 192.822 377.829 193.438C380.195 203.372 382.139 213.43 384.026 223.429C387.379 241.215 389.976 259.174 391.558 277.206L391.75 279.435C394.327 309.947 394.926 341.912 388.721 372.011C384.766 391.175 372.779 407.328 356.785 418.271C340.524 429.401 320.656 434.938 301.107 435.816C291.137 436.259 281.073 435.417 271.306 433.371C266.668 432.399 262.191 431.02 257.786 429.264C253.048 427.37 249.145 424.576 245.139 421.434C243.056 419.802 244.247 415.948 246.713 415.462C248.477 415.107 250.218 414.722 251.974 414.403C253.585 414.105 255.342 415.716 255.007 417.204L258.405 418.079C259.537 418.371 260.669 418.665 261.798 418.969L263.49 419.431C268.301 420.774 273.221 421.905 278.155 422.711C288.198 424.344 298.647 424.38 308.741 423.111C325.714 420.984 343.049 414.933 356.248 403.779C362.721 398.308 368.113 391.828 372.024 384.303C376.994 374.746 378.497 364.101 379.745 353.529C383.351 322.958 382.241 292.343 379.44 261.765C378.047 246.555 376.145 231.375 374.128 216.231C373.091 208.466 371.973 200.688 371.052 192.894C368.998 192.343 367.039 191.428 365.283 190.101C364.093 189.201 363.396 188.155 363.091 187.089C361.318 186.755 359.619 185.782 358.394 184.136L358.237 183.918C355.022 179.266 349.464 176.604 344.319 174.666C341.199 173.491 338.02 172.467 334.857 171.423C331.562 170.327 328.079 168.709 324.618 168.288C320.692 167.823 316.737 169.006 312.775 168.585C309.176 168.193 306.005 166.901 303.415 164.319C302.508 163.419 301.724 162.381 301.1 161.264C289.018 163.846 276.327 160.589 263.773 161.372C255.515 161.895 248.23 167.003 239.885 166.866C237.606 166.829 235.4 166.031 233.797 164.631C225.924 166.133 217.92 169.02 210.518 171.502C203.204 173.955 196.165 177.257 188.938 179.934C188.931 179.942 188.931 179.942 188.931 179.949C187.987 183.004 185.172 184.324 182.175 183.787C172.371 182.039 164.114 175.855 154.572 173.592C151.945 183.163 149.122 192.611 147.193 202.371C145.24 212.218 143.868 222.196 142.961 232.195C142.047 242.23 141.612 252.368 141.59 262.439C141.583 267.577 141.713 272.728 141.887 277.866C142.028 282.17 142.849 287.612 141.294 291.751L141.154 292.103H141.147C140.959 292.706 140.11 293.069 139.631 292.51C136.706 289.113 136.01 283.708 135.197 279.441C134.21 274.26 133.579 269.028 133.072 263.781C132.055 253.252 131.83 242.767 132.367 232.195C133.419 211.384 136.757 189.403 143.883 169.732C141.691 169.934 140.712 166.706 140.567 164.885C140.289 161.224 140.862 157.34 141.484 153.669L142.134 149.868C142.749 146.281 143.402 142.788 144.623 139.299C147.555 130.924 151.771 123.059 157.024 115.911C167.742 101.333 182.596 90.2954 199.51 83.9322C200.57 83.5331 201.571 83.5404 202.456 83.8444C217.847 75.5511 234.392 69.1655 251.198 64.623C256.393 63.2225 261.654 61.9018 266.952 60.9578ZM139.138 294.926C146.126 290.544 160.544 289.397 164.441 298.735C164.6 299.113 164.15 299.447 163.817 299.359L162.863 299.119C159.2 298.211 156.035 297.69 152.279 299.193C148.977 300.514 145.77 302.581 143.586 305.426C138.423 312.153 137.863 321.29 138.344 329.45L138.369 329.844C138.818 337.006 140.654 345.728 147.657 349.269C151.205 351.061 155.044 350.931 158.897 350.902C163.287 350.873 167.771 351.352 171.966 352.702C174.309 353.456 175.412 356.562 173.468 358.384C172.822 358.986 172.147 359.551 171.436 360.059C173.562 362.324 175.652 364.617 177.676 367.033C181.109 371.132 184.759 375.094 188.568 378.846C192.254 382.467 196.158 385.972 200.367 388.976C204.794 392.126 210.091 394.338 213.922 398.199C216.418 400.71 215.99 404.214 213.922 406.754C208.788 413.066 200.049 406.431 195.141 402.698L194.547 402.248C189.446 398.388 184.599 394.222 180.47 389.317C176.261 384.31 172.619 378.984 169.927 373.012C168.345 369.5 167.336 366.184 166.792 362.716C157.968 366.547 146.844 365.327 138.935 359.936C128.435 352.781 125.488 339.648 125.452 327.659L125.453 326.949C125.53 315.296 128.592 301.539 139.138 294.926ZM159.044 311.815L159.368 311.819C163.254 311.903 166.72 313.303 170.021 315.231L170.361 315.433C173.569 317.341 178.169 318.872 179.867 322.442C180.883 324.598 180.811 327.065 179.04 328.849C175.833 332.086 170.993 331.549 167.524 329.023C164.934 327.13 163.228 324.293 160.689 322.376C155.914 318.763 148.382 318.967 143.412 322.094C143.106 322.29 142.81 321.92 142.947 321.63C145.999 315.384 152.048 311.791 159.044 311.815Z" fill="black"/>
<path fill-rule="evenodd" clip-rule="evenodd" d="M263.849 389.446C269.724 375.682 282.547 365.567 297.31 361.869C308.151 359.16 319.529 359.246 330.58 360.321C336.37 360.881 342.581 361.339 348.037 363.489C352.697 365.326 356.494 368.799 359.35 372.875C362.748 377.705 365.06 383.233 366.683 388.899C366.914 389.704 367.13 390.516 367.333 391.331C366.627 395.606 365.128 399.245 361.168 401.933C357.304 404.557 352.694 405.631 348.098 406.012C347.647 405.796 347.212 405.573 346.813 405.345C339.651 401.245 334.61 391.557 325.57 392.868C317.503 394.039 312.193 404.189 307.395 410.141C291.996 411.935 276.608 407.308 264.078 398.503C263.442 395.489 263.405 392.449 263.849 389.446ZM377.799 379.005C376.567 375.548 375.015 372.2 373.176 369.045C367.096 358.615 357.762 350.304 346.682 345.553C320.47 334.33 286.555 342.241 265.388 360.648C258.157 366.94 250.845 376.187 248.634 386.133C247.974 386.264 247.351 386.607 246.838 387.091C231.544 377.462 215.795 368.198 203.471 354.851C194.521 345.154 188.296 333.677 184.485 321.066C184.173 320.028 182.499 320.179 182.55 321.328C182.564 321.597 182.579 321.865 182.593 322.134C182.434 321.64 181.68 321.894 181.622 322.373C179.571 337.693 177.006 353.936 179.368 369.336C180.782 378.525 184.956 385.253 190.536 392.517C196.514 400.303 203.283 407.545 210.203 414.491C214.595 418.899 219.182 423.984 224.559 427.217C230.813 430.972 237.908 433.828 244.582 436.726C251.372 439.682 258.264 442.413 265.286 444.782C279.323 449.532 293.831 452.816 308.593 454.254C320.412 455.402 333.92 456.652 345.247 452.205C353.928 448.799 360.936 442.639 366.494 435.229C372.545 427.159 377.329 417.966 379.973 408.272C382.721 398.202 378.378 380.628 377.799 379.005Z" fill="black"/>
<path fill-rule="evenodd" clip-rule="evenodd" d="M279.287 331.98C298.524 331.98 314.118 318.335 314.118 301.503C314.118 284.671 298.524 271.026 279.287 271.026C260.051 271.026 239.232 284.117 239.232 300.949C239.232 308.091 244.859 320.571 249.561 325.767C255.941 332.816 268.213 331.98 279.287 331.98Z" fill="white"/>
<path fill-rule="evenodd" clip-rule="evenodd" d="M362.195 326.147C376.921 326.147 388.859 313.807 388.859 298.586C388.859 283.365 376.921 271.026 362.195 271.026C347.47 271.026 331.533 282.865 331.533 298.086C331.533 304.544 335.84 315.83 339.44 320.528C344.324 326.903 353.718 326.147 362.195 326.147Z" fill="white"/>
<path fill-rule="evenodd" clip-rule="evenodd" d="M278.8 350.912C278.952 350.771 279.193 350.722 279.377 350.837C282.517 352.823 282.888 359.499 282.924 363.355C284.223 363.694 285.506 364.078 286.719 364.347C289.295 364.917 291.886 365.414 294.471 365.938L296.409 366.338C302.886 367.703 309.484 368.713 316.085 369.219C322.491 369.709 329.083 369.888 335.47 369.063C338.213 368.709 340.94 368.116 343.591 367.326C346.724 366.392 349.22 364.842 352.134 363.485C359.429 360.087 365.544 370.045 358.522 374.415C352.495 378.164 344.272 379.516 337.315 380.097C330.204 380.69 323.12 380.039 316.094 378.914C308.499 377.697 301.06 375.829 293.856 373.119C290.811 371.974 287.863 370.585 284.985 369.066L284.202 368.649C283.724 368.392 283.225 368.132 282.724 367.868C282.184 372.676 280.631 377.321 278.754 381.786L278.709 381.708C277.683 385.23 273.973 387.409 270.283 385.853C265.951 384.028 265.622 379.238 268.142 375.837L268.262 375.679C271.226 371.867 273.083 367.137 274.697 362.628C275.525 360.317 276.291 357.95 276.956 355.586C277.437 353.876 277.454 352.155 278.8 350.912ZM390.426 312.618C387.859 320.378 382.259 326.353 374.458 328.981C366.727 331.585 358.129 330.636 350.226 329.228C348.498 328.92 346.745 328.58 344.996 328.183C346.428 329.07 347.692 330.318 348.902 331.637C350.691 333.588 352.314 335.644 352.806 338.086C353.294 340.509 352.525 342.353 351.122 343.744C348.963 345.884 345.481 347.037 342.532 347.674C335.927 349.102 329.311 348.88 322.739 347.416C321.061 347.043 319.923 346.143 319.284 344.969C318.508 343.544 318.445 341.771 318.89 340.156C319.335 338.542 320.297 337.055 321.692 336.231C322.841 335.553 324.277 335.367 325.908 335.91C329.181 336.999 332.43 337.72 335.887 337.804C337.35 337.838 338.823 337.794 340.284 337.66C341.11 337.584 341.934 337.479 342.754 337.348C342.271 336.705 341.802 336.05 341.344 335.388C340.803 334.607 340.275 333.814 339.772 333.009C338.316 330.678 337.104 328.281 336.039 325.752C335.697 324.941 335.38 324.127 335.076 323.311C335.032 323.193 334.989 323.075 334.945 322.957C334.851 322.879 334.758 322.8 334.666 322.72C332.582 320.917 330.835 318.697 329.6 315.947C326.255 308.497 326.799 299.251 328.829 291.516C330.456 285.316 334.046 279.581 338.79 275.685C339.618 274.323 340.165 273.496 340.835 272.8C343.561 269.963 347.366 268.05 351.078 266.887C359.37 264.287 368.4 266.152 375.428 271.103C381.918 275.673 386.998 282.529 389.744 290.153C392.344 297.373 392.851 305.293 390.426 312.618ZM277.489 265.461C287.349 265.377 297.382 268.288 305.384 274.114C313.039 279.689 319.049 287.92 319.042 297.724C319.034 307.27 313.932 316.656 308.272 324.046C301.92 332.343 293.619 336.344 283.181 336.436C277.756 336.484 272.291 336.004 266.904 335.344L264.014 334.98C260.034 334.466 256.013 333.859 252.241 332.491C234.286 325.979 233.73 302.477 240.38 287.454C245.515 275.855 258.51 264.544 271.469 265.902C273.421 265.628 275.426 265.479 277.489 265.461ZM294.142 276.513C281.794 270.971 266.791 272.63 254.813 278.545C250.068 283.722 246.6 290.246 245.196 296.236C243.698 302.629 243.917 309.516 246.17 315.713C248.921 323.278 255.695 325.151 263.002 326.314L265.839 326.759L267.029 326.94C274.209 328.011 282.059 328.844 288.959 327.503C296.649 326.008 301.533 319.796 305.376 313.426L305.556 313.128C309.547 306.454 312.889 298.338 309.541 290.691C306.694 284.191 300.476 279.356 294.142 276.513ZM367.027 278.444C362.789 276.096 357.956 275.67 353.38 277.241C351.411 277.917 349.71 279.013 348.06 280.242L347.403 280.74C345.374 282.297 343.48 283.085 341.958 285.188L341.762 285.47C340.994 286.617 339.651 287.075 338.427 286.923C337.002 290.854 336.413 295.104 336.401 299.289L336.402 299.844L336.41 300.409C336.501 305.356 337.364 311.407 341.256 314.722C344.806 317.745 350.181 318.471 354.98 318.892L358.678 319.2L359.661 319.275C364.719 319.627 370.262 319.507 374.501 316.512C378.193 313.904 379.935 309.478 380.386 305.107C381.453 294.782 376.227 283.542 367.027 278.444ZM274.785 279.398C281.585 275.927 289.753 276.797 295.513 281.148C295.002 281.248 294.498 281.376 293.996 281.627C292.689 282.283 291.878 283.595 291.569 284.991C291.22 286.569 292.038 288.063 293.596 288.561C294.952 288.993 296.559 289.192 297.818 288.368C298.477 287.937 298.938 287.369 299.241 286.653L299.284 286.548L299.337 286.471L299.357 286.435C299.362 286.421 299.338 286.447 299.3 286.506C299.339 286.417 299.374 286.327 299.41 286.237C299.463 286.129 299.514 286.02 299.555 285.907C299.628 285.844 299.695 285.774 299.763 285.703C300.809 287.314 301.63 289.132 302.152 291.155C305.5 304.14 291.771 317.616 279.506 318.965C274.87 319.474 270.643 318.37 267.136 316.195C267.168 316.152 267.203 316.114 267.232 316.069C268.641 316.322 270.323 315.691 270.835 314.119C272.14 310.11 270.802 305.42 266.433 304.111C263.622 303.268 260.746 304.199 258.736 306.121C257.217 302.402 256.673 298.215 257.392 294.021C258.407 288.105 261.976 282.774 267.53 280.313C270.234 279.113 272.565 278.861 274.785 279.398ZM346.396 287.41L346.603 287.084C348.704 283.85 352.721 279.884 356.883 280.974C357.468 281.127 358.042 281.374 358.558 281.694C360.845 281.383 363.24 281.903 365.206 283.113L365.153 283.248C365.144 283.271 365.137 283.294 365.131 283.318C364.952 284.105 365.056 284.832 365.423 285.554C365.822 286.337 366.39 287.08 367.159 287.529C367.687 287.837 368.307 287.998 368.915 287.986C369.807 287.97 370.592 287.577 371.237 286.978C371.587 286.653 371.832 286.176 371.967 285.686C372.284 285.991 372.593 286.33 372.887 286.715C377.713 293.062 377.046 303.26 371.384 308.917C371.155 309.145 370.912 309.351 370.672 309.561C368.373 312.726 364.83 314.874 360.574 315.309C356.634 315.711 352.694 314.546 349.672 312.157C349.915 312.028 350.142 311.86 350.338 311.638C350.854 311.054 351.279 310.478 351.592 309.765C351.671 309.585 351.747 309.404 351.819 309.222L351.924 308.947C351.942 308.896 352.103 308.432 352.06 308.514L352.05 308.533L352.107 308.399C352.648 307.049 352.429 305.506 351.146 304.659L351.004 304.571C350.585 304.327 350.065 304.211 349.539 304.21C348.229 302.605 346.278 302.238 344.447 302.706L344.383 302.188C344.373 302.102 344.365 302.015 344.359 301.928C342.94 297.226 343.625 291.881 346.396 287.41ZM283.413 240.062L283.884 239.989C287.445 239.474 289.867 240.067 292.183 243.111C293.286 244.561 292.946 246.752 292.183 248.234C289.717 253.024 282.934 252.034 278.365 252.985C273.905 253.913 269.455 255.176 265.281 257.015C261.022 258.892 257.025 261.111 253.127 263.646C249.601 265.94 246.403 269.387 242.375 270.722C242.193 270.782 241.975 270.619 241.986 270.427C242.273 265.846 246.099 261.641 249.063 258.379C252.491 254.606 256.66 251.257 261.001 248.593C265.481 245.846 270.324 243.584 275.338 242.007C277.979 241.176 280.681 240.516 283.413 240.062ZM337.673 246.282C342.158 239.725 353.306 240.982 359.883 242.735C368.131 244.93 377.068 249.372 382.851 255.801C388.032 261.561 380.281 269.043 374.456 264.197L372.901 262.908L371.906 262.09C367.434 258.438 363.005 255.132 357.556 252.697C351.166 249.843 344.691 248.453 337.937 246.932C337.672 246.872 337.516 246.512 337.673 246.282Z" fill="black"/>
<path fill-rule="evenodd" clip-rule="evenodd" d="M394.73 297.463C392.678 303.047 389.555 308.861 385.736 313.561C370.284 326.646 355.27 319.401 347.646 301.667C344.749 289.135 352.44 275.635 360.59 266.416C372.36 254.619 391.568 260.81 396.98 274.834C397.309 276.651 397.508 278.463 397.603 280.27C397.49 286.141 396.783 291.159 394.73 296.737M246.205 286.2C266.561 261.988 304.642 260.693 303.671 297.958C299.298 345.128 225.666 333.55 246.205 286.2ZM401.131 266.002C400.418 264.794 399.626 263.625 398.762 262.507C398.443 262.316 398.259 260.63 397.085 260.505C381.392 243.192 353.823 253.015 343.861 270.267C342.042 272.448 340.558 275.001 339.464 277.699C329.649 275.899 318.206 276.249 309.077 279.956C300.026 256.32 272.622 254.21 254.563 264.309C243.331 269.833 236.048 281.402 225.124 287.757C199.444 289.606 171.884 283.852 146.668 290.293C126.781 294.428 143.405 304.498 146.74 297.778C170.515 290.753 198.68 296.689 223.364 295.107C225.931 299.448 230.853 303.001 235.758 302.849C241.056 349.813 309.545 342.026 311.908 300.278C314.587 296.04 317.92 291.986 322.69 289.346C324.517 288.968 326.281 288.476 327.893 287.716C330.649 287.327 334.896 288.495 337.431 290.79C346.116 342.902 396.153 336.833 405.095 291.18C405.273 290.999 405.77 290.318 406.151 289.226C409.212 285.179 416.705 283.675 415.508 276.843C414.442 270.01 405.812 270.091 401.131 266.002Z" fill="black"/>
</svg>
