<svg width="79" height="22" viewBox="0 0 79 22" fill="none" xmlns="http://www.w3.org/2000/svg">
<path d="M6.78232 8.45967H9.72376V11.863C9.72376 12.495 9.62652 13.1028 9.43204 13.6862C9.25378 14.2534 8.96206 14.7639 8.55691 15.2177C8.16795 15.6552 7.66556 16.0037 7.04972 16.263C6.45009 16.5223 5.72891 16.6519 4.88619 16.6519C4.01105 16.6519 3.26556 16.5223 2.64972 16.263C2.03389 16.0037 1.52339 15.6552 1.11823 15.2177C0.729282 14.7801 0.445672 14.2696 0.267403 13.6862C0.0891344 13.1028 0 12.4869 0 11.8387V1.14254H3.1116V4.37569H9.72376V6.61216H3.1116V11.5227C3.1116 12.2843 3.24936 12.8759 3.52486 13.2972C3.81657 13.7024 4.28656 13.905 4.93481 13.905C5.56685 13.905 6.02873 13.7024 6.32044 13.2972C6.62836 12.8921 6.78232 12.3168 6.78232 11.5713V8.45967Z" fill="black"/>
<path d="M18.8914 9.18895C18.8752 8.75138 18.7942 8.37053 18.6483 8.04641C18.5187 7.70608 18.3404 7.43057 18.1135 7.21989C17.8866 6.993 17.6273 6.83094 17.3356 6.7337C17.0439 6.62026 16.7441 6.56354 16.4362 6.56354C15.8041 6.56354 15.2531 6.79853 14.7831 7.26851C14.3294 7.72228 14.0701 8.36243 14.0052 9.18895H18.8914ZM13.908 11.1823C13.9566 12.0899 14.2159 12.8111 14.6859 13.3459C15.1721 13.8807 15.8041 14.1481 16.582 14.1481C17.1006 14.1481 17.5544 14.0346 17.9434 13.8077C18.3485 13.5646 18.6078 13.2324 18.7213 12.8111H21.9787C21.606 14.0427 20.9577 14.9908 20.034 15.6552C19.1102 16.3197 18.0082 16.6519 16.7279 16.6519C12.7412 16.6519 10.7478 14.4803 10.7478 10.137C10.7478 9.21326 10.8774 8.37864 11.1367 7.63315C11.396 6.88766 11.7688 6.24751 12.255 5.71271C12.7574 5.1779 13.3651 4.77274 14.0782 4.49724C14.7913 4.20553 15.6097 4.05967 16.5334 4.05967C18.3809 4.05967 19.7747 4.6512 20.7146 5.83426C21.6708 7.01731 22.1489 8.8 22.1489 11.1823H13.908Z" fill="black"/>
<path d="M23.2411 4.37569H26.4256V17.1381C26.4256 17.8674 26.3041 18.5238 26.061 19.1072C25.8179 19.7068 25.4857 20.2173 25.0643 20.6387C24.643 21.0762 24.1406 21.4085 23.5571 21.6354C22.9899 21.8785 22.3741 22 21.7096 22C20.0728 22 18.8654 21.5462 18.0875 20.6387C17.2934 19.7473 16.8964 18.5319 16.8964 16.9923H19.8621C19.8621 17.6729 19.9918 18.2077 20.2511 18.5967C20.4941 19.0018 20.9236 19.2044 21.5395 19.2044C22.1715 19.2044 22.6091 19.0099 22.8522 18.621C23.1115 18.232 23.2411 17.6972 23.2411 17.0166V4.37569ZM23.2411 2.94144V0H26.4256V2.94144H23.2411Z" fill="black"/>
<path d="M33.6288 13.9536C35.4439 13.9536 36.3515 12.7219 36.3515 10.2586C36.3515 9.18895 36.1003 8.32192 35.5979 7.65746C35.0955 6.9768 34.4472 6.63646 33.6531 6.63646C32.8914 6.63646 32.2513 6.95249 31.7327 7.58453C31.2303 8.21658 30.9791 9.04309 30.9791 10.0641C30.9791 12.6571 31.8623 13.9536 33.6288 13.9536ZM27.989 22V4.37569H31.0277L31.052 5.83426C31.7813 4.6512 32.8914 4.05967 34.3824 4.05967C35.1279 4.05967 35.8167 4.20553 36.4487 4.49724C37.097 4.78895 37.648 5.21031 38.1017 5.76133C38.5555 6.31234 38.9121 6.9849 39.1714 7.77901C39.4307 8.57311 39.5603 9.47256 39.5603 10.4773C39.5603 11.3849 39.4469 12.2195 39.22 12.9812C39.0093 13.7267 38.6933 14.375 38.2719 14.926C37.8505 15.477 37.3319 15.9064 36.7161 16.2144C36.1165 16.5061 35.4277 16.6519 34.6498 16.6519C33.175 16.6519 31.992 16.028 31.1006 14.7801V22H27.989Z" fill="black"/>
<path d="M47.982 10.4773C47.8199 10.6394 47.5849 10.7691 47.277 10.8663C46.9691 10.9635 46.5234 11.0689 45.94 11.1823C45.0325 11.3606 44.4085 11.5875 44.0682 11.863C43.7278 12.1385 43.5577 12.5355 43.5577 13.0541C43.5577 13.9455 44.0682 14.3912 45.0892 14.3912C45.4943 14.3912 45.8671 14.3263 46.2074 14.1967C46.5639 14.0508 46.8638 13.8645 47.1069 13.6376C47.3662 13.3945 47.5687 13.119 47.7146 12.8111C47.8766 12.4869 47.9577 12.1466 47.9577 11.7901L47.982 10.4773ZM48.2008 16.3359C48.1035 16.028 48.0387 15.6715 48.0063 15.2663C47.6336 15.6877 47.1393 16.028 46.5234 16.2873C45.9076 16.5304 45.1945 16.6519 44.3842 16.6519C43.0067 16.6519 41.9938 16.3521 41.3455 15.7525C40.7135 15.1366 40.3975 14.3425 40.3975 13.3702C40.3975 12.5112 40.5352 11.8306 40.8107 11.3282C41.0862 10.8096 41.4671 10.4044 41.9533 10.1127C42.4394 9.82099 43.0148 9.61031 43.6792 9.48066C44.3599 9.33481 45.0973 9.20516 45.8914 9.09171C46.6855 8.97827 47.2203 8.83241 47.4958 8.65414C47.7713 8.45967 47.9091 8.15175 47.9091 7.73039C47.9091 7.34144 47.7227 7.04162 47.3499 6.83094C46.9934 6.60405 46.5072 6.49061 45.8914 6.49061C45.1621 6.49061 44.6354 6.65267 44.3113 6.9768C44.0034 7.30092 43.8089 7.73039 43.7278 8.26519H40.7864C40.8026 7.64936 40.8999 7.08214 41.0781 6.56354C41.2726 6.04494 41.5724 5.59926 41.9776 5.22652C42.3989 4.85378 42.9418 4.57017 43.6063 4.37569C44.2708 4.16501 45.0811 4.05967 46.0372 4.05967C46.9772 4.05967 47.7713 4.16501 48.4196 4.37569C49.084 4.58637 49.6107 4.89429 49.9997 5.29945C50.4048 5.6884 50.6965 6.18269 50.8748 6.78232C51.0531 7.36575 51.1422 8.0302 51.1422 8.77569V16.3359H48.2008Z" fill="black"/>
<path d="M59.3181 8.45967H62.2596V11.863C62.2596 12.495 62.1623 13.1028 61.9679 13.6862C61.7896 14.2534 61.4979 14.7639 61.0927 15.2177C60.7038 15.6552 60.2014 16.0037 59.5855 16.263C58.9859 16.5223 58.2647 16.6519 57.422 16.6519C56.5469 16.6519 55.8014 16.5223 55.1855 16.263C54.5697 16.0037 54.0592 15.6552 53.6541 15.2177C53.2651 14.7801 52.9815 14.2696 52.8032 13.6862C52.625 13.1028 52.5358 12.4869 52.5358 11.8387V1.14254H55.6474V4.37569H62.2596V6.61216H55.6474V11.5227C55.6474 12.2843 55.7852 12.8759 56.0607 13.2972C56.3524 13.7024 56.8224 13.905 57.4706 13.905C58.1027 13.905 58.5645 13.7024 58.8563 13.2972C59.1642 12.8921 59.3181 12.3168 59.3181 11.5713V8.45967Z" fill="black"/>
<path d="M71.4273 9.18895C71.4111 8.75138 71.33 8.37053 71.1842 8.04641C71.0545 7.70608 70.8762 7.43057 70.6494 7.21989C70.4225 6.993 70.1632 6.83094 69.8715 6.7337C69.5797 6.62026 69.2799 6.56354 68.972 6.56354C68.34 6.56354 67.789 6.79853 67.319 7.26851C66.8652 7.72228 66.6059 8.36243 66.5411 9.18895H71.4273ZM66.4438 11.1823C66.4924 12.0899 66.7517 12.8111 67.2217 13.3459C67.7079 13.8807 68.34 14.1481 69.1179 14.1481C69.6365 14.1481 70.0902 14.0346 70.4792 13.8077C70.8843 13.5646 71.1436 13.2324 71.2571 12.8111H74.5145C74.1418 14.0427 73.4936 14.9908 72.5698 15.6552C71.646 16.3197 70.544 16.6519 69.2637 16.6519C65.277 16.6519 63.2836 14.4803 63.2836 10.137C63.2836 9.21326 63.4133 8.37864 63.6726 7.63315C63.9319 6.88766 64.3046 6.24751 64.7908 5.71271C65.2932 5.1779 65.9009 4.77274 66.614 4.49724C67.3271 4.20553 68.1455 4.05967 69.0692 4.05967C70.9168 4.05967 72.3105 4.6512 73.2505 5.83426C74.2066 7.01731 74.6847 8.8 74.6847 11.1823H66.4438Z" fill="black"/>
<path d="M75.7769 16.3359V0H78.9371V16.3359H75.7769Z" fill="black"/>
</svg>
